<mxfile host="seqgen" agent="seqgen" version="26.2.2"><diagram name="Diagram" id="1001"><mxGraphModel dx="0" dy="0" grid="1" gridSize="10" guides="1" tooltips="1" connect="1" arrows="1" fold="1" page="0" pageScale="1" pageWidth="850" pageHeight="1100" background="#ffffff" math="0" shadow="0"><root><mxCell id="0" /><mxCell id="1" parent="0" /><mxCell id="1002" value="Frames" parent="1" style="shape=umlFrame;whiteSpace=wrap;html=1;pointerEvents=0;width=160;height=40;" vertex="1"><mxGeometry x="-110.0" y="-70" width="710.0" height="790" as="geometry" /></mxCell><mxCell id="1003" value="A" parent="1" style="shape=umlLifeline;perimeter=lifelinePerimeter;whiteSpace=wrap;html=1;container=1;dropTarget=0;collapsible=0;recursiveResize=0;outlineConnect=0;portConstraint=eastwest;newEdgeStyle={&quot;curved&quot;:0,&quot;rounded&quot;:0};" vertex="1"><mxGeometry x="0" y="0" width="160" height="690" as="geometry" /></mxCell><mxCell id="1004" value="B" parent="1" style="shape=umlLifeline;perimeter=lifelinePerimeter;whiteSpace=wrap;html=1;container=1;dropTarget=0;collapsible=0;recursiveResize=0;outlineConnect=0;portConstraint=eastwest;newEdgeStyle={&quot;curved&quot;:0,&quot;rounded&quot;:0};" vertex="1"><mxGeometry x="200" y="0" width="160" height="690" as="geometry" /></mxCell><mxCell id="1005" value="C" parent="1" style="shape=umlLifeline;perimeter=lifelinePerimeter;whiteSpace=wrap;html=1;container=1;dropTarget=0;collapsible=0;recursiveResize=0;outlineConnect=0;portConstraint=eastwest;newEdgeStyle={&quot;curved&quot;:0,&quot;rounded&quot;:0};" vertex="1"><mxGeometry x="400" y="0" width="160" height="690" as="geometry" /></mxCell><mxCell id="1006" value="loop" parent="1" style="shape=umlFrame;whiteSpace=wrap;html=1;pointerEvents=0;width=60;height=20;" vertex="1"><mxGeometry x="50.0" y="70" width="460.0" height="110" as="geometry" /></mxCell><mxCell id="1007" value="[forever]" parent="1006" style="text;html=1;align=left;verticalAlign=middle;rounded=0;labelPosition=center;verticalLabelPosition=middle;labelBackgroundColor=default;" vertex="1"><mxGeometry x="10" y="25" width="100" height="20" as="geometry" /></mxCell><mxCell id="1008" value="" parent="1003" style="html=1;points=[[0,0,0,0,5],[0,1,0,0,-5],[1,0,0,0,5],[1,1,0,0,-5]];perimeter=orthogonalPerimeter;outlineConnect=0;targetShapes=umlLifeline;portConstraint=eastwest;newEdgeStyle={&quot;curved&quot;:0,&quot;rounded&quot;:0};" vertex="1"><mxGeometry x="75.0" y="130" width="10" height="20" as="geometry" /></mxCell><mxCell id="1009" value="" parent="1005" style="html=1;points=[[0,0,0,0,5],[0,1,0,0,-5],[1,0,0,0,5],[1,1,0,0,-5]];perimeter=orthogonalPerimeter;outlineConnect=0;targetShapes=umlLifeline;portConstraint=eastwest;newEdgeStyle={&quot;curved&quot;:0,&quot;rounded&quot;:0};" vertex="1"><mxGeometry x="75.0" y="140" width="10" height="20" as="geometry" /></mxCell><mxCell id="1010" value="" parent="1003" style="html=1;points=[[0,0,0,0,5],[0,1,0,0,-5],[1,0,0,0,5],[1,1,0,0,-5]];perimeter=orthogonalPerimeter;outlineConnect=0;targetShapes=umlLifeline;portConstraint=eastwest;newEdgeStyle={&quot;curved&quot;:0,&quot;rounded&quot;:0};" vertex="1"><mxGeometry x="75.0" y="190" width="10" height="450" as="geometry" /></mxCell><mxCell id="1011" value="" parent="1004" style="html=1;points=[[0,0,0,0,5],[0,1,0,0,-5],[1,0,0,0,5],[1,1,0,0,-5]];perimeter=orthogonalPerimeter;outlineConnect=0;targetShapes=umlLifeline;portConstraint=eastwest;newEdgeStyle={&quot;curved&quot;:0,&quot;rounded&quot;:0};" vertex="1"><mxGeometry x="75.0" y="200" width="10" height="450" as="geometry" /></mxCell><mxCell id="1012" value="" parent="1005" style="html=1;points=[[0,0,0,0,5],[0,1,0,0,-5],[1,0,0,0,5],[1,1,0,0,-5]];perimeter=orthogonalPerimeter;outlineConnect=0;targetShapes=umlLifeline;portConstraint=eastwest;newEdgeStyle={&quot;curved&quot;:0,&quot;rounded&quot;:0};" vertex="1"><mxGeometry x="75.0" y="210" width="10" height="450" as="geometry" /></mxCell><mxCell id="1013" value="opt" parent="1" style="shape=umlFrame;whiteSpace=wrap;html=1;pointerEvents=0;width=60;height=20;" vertex="1"><mxGeometry x="50.0" y="230" width="260.0" height="90" as="geometry" /></mxCell><mxCell id="1014" value="[sometimes, sometimes not]" parent="1013" style="text;html=1;align=left;verticalAlign=middle;rounded=0;labelPosition=center;verticalLabelPosition=middle;labelBackgroundColor=default;" vertex="1"><mxGeometry x="10" y="25" width="100" height="20" as="geometry" /></mxCell><mxCell id="1015" value="" parent="1" style="html=1;curved=0;rounded=0;verticalAlign=bottom;endArrow=block;dashed=0;" edge="1" source="1010" target="1011"><mxGeometry relative="1" as="geometry"><mxPoint as="targetPoint" /><mxPoint as="sourcePoint" /><Array as="points"><mxPoint x="180.0" y="300" /></Array></mxGeometry></mxCell><mxCell id="1016" value="alt" parent="1" style="shape=umlFrame;whiteSpace=wrap;html=1;pointerEvents=0;width=60;height=20;" vertex="1"><mxGeometry x="450.0" y="340" width="120.0" height="250" as="geometry" /></mxCell><mxCell id="1017" value="[what if?]" parent="1016" style="text;html=1;align=left;verticalAlign=middle;rounded=0;labelPosition=center;verticalLabelPosition=middle;labelBackgroundColor=default;" vertex="1"><mxGeometry x="10" y="25" width="100" height="20" as="geometry" /></mxCell><mxCell id="1018" value="" parent="1005" style="html=1;points=[[0,0,0,0,5],[0,1,0,0,-5],[1,0,0,0,5],[1,1,0,0,-5]];perimeter=orthogonalPerimeter;outlineConnect=0;targetShapes=umlLifeline;portConstraint=eastwest;newEdgeStyle={&quot;curved&quot;:0,&quot;rounded&quot;:0};" vertex="1"><mxGeometry x="80.0" y="410" width="10" height="20" as="geometry" /></mxCell><mxCell id="1019" value="self call" parent="1" style="html=1;curved=0;rounded=0;align=left;spacingLeft=2;endArrow=block;dashed=0;" edge="1" source="1012" target="1018"><mxGeometry relative="1" as="geometry"><mxPoint as="targetPoint" /><mxPoint as="sourcePoint" /><Array as="points"><mxPoint x="510.0" y="400" /><mxPoint x="510.0" y="420" /></Array></mxGeometry></mxCell><mxCell id="1020" value="" parent="1" style="html=1;endArrow=none;dashed=1;rounded=0;entryX=1;entryY=0.440;entryDx=0;entryDy=0;entryPerimeter=0;exitX=0;exitY=0.440;exitDx=0;exitDy=0;exitPerimeter=0;" edge="1" source="1016" target="1016"><mxGeometry relative="1" as="geometry"><mxPoint as="targetPoint" /><mxPoint as="sourcePoint" /></mxGeometry></mxCell><mxCell id="1021" value="[what if not?]" parent="1016" style="text;html=1;align=left;verticalAlign=middle;rounded=0;labelPosition=center;verticalLabelPosition=middle;labelBackgroundColor=default;" vertex="1"><mxGeometry x="10" y="115" width="100" height="20" as="geometry" /></mxCell><mxCell id="1022" value="" parent="1005" style="html=1;points=[[0,0,0,0,5],[0,1,0,0,-5],[1,0,0,0,5],[1,1,0,0,-5]];perimeter=orthogonalPerimeter;outlineConnect=0;targetShapes=umlLifeline;portConstraint=eastwest;newEdgeStyle={&quot;curved&quot;:0,&quot;rounded&quot;:0};" vertex="1"><mxGeometry x="80.0" y="500" width="10" height="20" as="geometry" /></mxCell><mxCell id="1023" value="self call also" parent="1" style="html=1;curved=0;rounded=0;align=left;spacingLeft=2;endArrow=block;dashed=0;" edge="1" source="1012" target="1022"><mxGeometry relative="1" as="geometry"><mxPoint as="targetPoint" /><mxPoint as="sourcePoint" /><Array as="points"><mxPoint x="510.0" y="490" /><mxPoint x="510.0" y="510" /></Array></mxGeometry></mxCell><mxCell id="1024" value="" parent="1" style="html=1;endArrow=none;dashed=1;rounded=0;entryX=1;entryY=0.800;entryDx=0;entryDy=0;entryPerimeter=0;exitX=0;exitY=0.800;exitDx=0;exitDy=0;exitPerimeter=0;" edge="1" source="1016" target="1016"><mxGeometry relative="1" as="geometry"><mxPoint as="targetPoint" /><mxPoint as="sourcePoint" /></mxGeometry></mxCell><mxCell id="1025" value="[else]" parent="1016" style="text;html=1;align=left;verticalAlign=middle;rounded=0;labelPosition=center;verticalLabelPosition=middle;labelBackgroundColor=default;" vertex="1"><mxGeometry x="10" y="205" width="100" height="20" as="geometry" /></mxCell><mxCell id="1026" value="loop" parent="1" style="shape=umlFrame;whiteSpace=wrap;html=1;pointerEvents=0;width=60;height=20;" vertex="1"><mxGeometry x="-80.0" y="410" width="490.0" height="220" as="geometry" /></mxCell><mxCell id="1027" value="[never]" parent="1026" style="text;html=1;align=left;verticalAlign=middle;rounded=0;labelPosition=center;verticalLabelPosition=middle;labelBackgroundColor=default;" vertex="1"><mxGeometry x="10" y="25" width="100" height="20" as="geometry" /></mxCell><mxCell id="1028" value="opt" parent="1" style="shape=umlFrame;whiteSpace=wrap;html=1;pointerEvents=0;width=60;height=20;" vertex="1"><mxGeometry x="-50.0" y="480" width="430.0" height="130" as="geometry" /></mxCell><mxCell id="1029" value="[but maybe]" parent="1028" style="text;html=1;align=left;verticalAlign=middle;rounded=0;labelPosition=center;verticalLabelPosition=middle;labelBackgroundColor=default;" vertex="1"><mxGeometry x="10" y="25" width="100" height="20" as="geometry" /></mxCell><mxCell id="1030" value="" parent="1" style="html=1;curved=0;rounded=0;verticalAlign=bottom;endArrow=block;dashed=0;" edge="1" source="1010" target="1011"><mxGeometry relative="1" as="geometry"><mxPoint as="targetPoint" /><mxPoint as="sourcePoint" /><Array as="points"><mxPoint x="180.0" y="550" /></Array></mxGeometry></mxCell><mxCell id="1031" value="" parent="1004" style="html=1;points=[[0,0,0,0,5],[0,1,0,0,-5],[1,0,0,0,5],[1,1,0,0,-5]];perimeter=orthogonalPerimeter;outlineConnect=0;targetShapes=umlLifeline;portConstraint=eastwest;newEdgeStyle={&quot;curved&quot;:0,&quot;rounded&quot;:0};" vertex="1"><mxGeometry x="80.0" y="570" width="10" height="20" as="geometry" /></mxCell><mxCell id="1032" value="again a&lt;br/&gt;self call" parent="1" style="html=1;curved=0;rounded=0;align=left;spacingLeft=2;endArrow=block;dashed=0;" edge="1" source="1011" target="1031"><mxGeometry relative="1" as="geometry"><mxPoint as="targetPoint" /><mxPoint as="sourcePoint" /><Array as="points"><mxPoint x="310.0" y="560" /><mxPoint x="310.0" y="580" /></Array></mxGeometry></mxCell></root></mxGraphModel></diagram></mxfile>